# xmcd CD database file
#
# Track frame offsets:
#	150
#	9887
#	22162
#	46210
#	60115
#	74010
#	95397
#	109537
#	139587
#	161215
#	185687
#	210650
#	233990
#	266560
#
# Disc length: 3696 seconds
#
# Revision: 19
# Processed by: cddbd v1.5.2PL0 Copyright (c) Steve Scherf et al.
# Submitted via: CDex 1.98
#
DISCID=bd0e6e0e
DTITLE=Stevie Ray Vaughan - Live At Carnegie Hall
DYEAR=2014
DGENRE=Blues
TTITLE0=Intro
TTITLE1=Scuttle Buttin'
TTITLE2=Testifyin'
TTITLE3=Love Struck Baby
TTITLE4=Honey Bee
TTITLE5=Cold Shot
TTITLE6=Letter to My Girlfriend
TTITLE7=Dirty Pool
TTITLE8=Pride and Joy
TTITLE9=The Things That I Used to Do
TTITLE10=C.O.D.
TTITLE11=Iced Over
TTITLE12=Lenny
TTITLE13=Rude Mood
EXTD=YEAR: 2014
EXTT0=
EXTT1=
EXTT2=
EXTT3=
EXTT4=
EXTT5=
EXTT6=
EXTT7=
EXTT8=
EXTT9=
EXTT10=
EXTT11=
EXTT12=
EXTT13=
PLAYORDER=
